<svg width="260" height="97" viewBox="0 0 260 97" fill="none" xmlns="http://www.w3.org/2000/svg">
<path d="M126.272 63.535C123.609 63.535 121.236 63.147 119.203 62.3225C117.169 61.5465 115.233 60.237 113.344 58.491C113.102 58.297 112.86 58.006 112.715 57.6665C112.57 57.327 112.473 56.9875 112.473 56.648C112.473 56.066 112.667 55.5325 113.102 55.096C113.538 54.6595 114.022 54.417 114.652 54.417C115.136 54.417 115.62 54.611 116.007 54.999C117.411 56.357 118.961 57.424 120.607 58.1515C122.253 58.879 124.093 59.2185 126.175 59.2185C127.773 59.2185 129.177 58.976 130.484 58.4425C131.743 57.9575 132.76 57.23 133.534 56.3085C134.309 55.387 134.696 54.3685 134.696 53.156C134.696 51.701 134.309 50.4885 133.486 49.567C132.663 48.6455 131.549 47.821 130.097 47.239C128.644 46.6085 126.998 46.075 125.11 45.59C123.464 45.202 121.914 44.717 120.51 44.135C119.106 43.553 117.896 42.874 116.879 42.001C115.862 41.128 115.039 40.1095 114.506 38.897C113.925 37.6845 113.683 36.2295 113.683 34.5805C113.683 32.495 114.216 30.7005 115.33 29.1485C116.395 27.5965 117.944 26.384 119.881 25.511C121.817 24.638 124.045 24.2015 126.562 24.2015C128.789 24.2015 130.871 24.541 132.857 25.2685C134.842 25.996 136.439 27.0145 137.601 28.2755C138.328 28.9545 138.667 29.6335 138.667 30.361C138.667 30.846 138.424 31.331 137.989 31.816C137.553 32.2525 137.02 32.495 136.439 32.495C136.052 32.495 135.665 32.3495 135.374 32.107C134.745 31.428 133.97 30.7975 133.002 30.264C132.033 29.7305 131.017 29.294 129.903 28.9545C128.789 28.615 127.676 28.4695 126.562 28.4695C124.916 28.4695 123.415 28.712 122.156 29.197C120.897 29.682 119.881 30.361 119.203 31.234C118.477 32.107 118.138 33.174 118.138 34.3865C118.138 35.7445 118.525 36.9085 119.348 37.7815C120.123 38.6545 121.236 39.382 122.544 39.964C123.899 40.546 125.352 41.031 126.998 41.4675C128.789 41.904 130.436 42.389 131.937 42.971C133.438 43.553 134.745 44.232 135.81 45.0565C136.875 45.881 137.747 46.948 138.328 48.2575C138.909 49.567 139.248 51.119 139.248 53.0105C139.248 54.999 138.667 56.7935 137.553 58.3455C136.439 59.8975 134.89 61.1585 132.953 62.0315C130.92 63.0985 128.693 63.535 126.272 63.535Z" fill="black"/>
<path d="M159.244 34.435C161.616 34.435 163.505 34.9685 164.909 35.987C166.313 37.0055 167.281 38.412 167.91 40.1095C168.491 41.8555 168.83 43.747 168.83 45.8325V60.7705C168.83 61.401 168.637 61.9345 168.201 62.371C167.765 62.8075 167.281 63.0015 166.652 63.0015C166.022 63.0015 165.49 62.8075 165.054 62.371C164.667 61.9345 164.473 61.401 164.473 60.7705V45.8325C164.473 44.4745 164.279 43.262 163.892 42.1465C163.505 41.031 162.827 40.1095 161.907 39.4305C160.987 38.7515 159.728 38.412 158.13 38.412C156.629 38.412 155.274 38.7515 154.063 39.4305C152.853 40.1095 151.836 40.9825 151.11 42.1465C150.383 43.262 150.045 44.523 150.045 45.8325V60.7705C150.045 61.401 149.851 61.9345 149.415 62.371C148.979 62.8075 148.495 63.0015 147.866 63.0015C147.236 63.0015 146.752 62.8075 146.316 62.371C145.881 61.9345 145.687 61.401 145.687 60.7705V24.929C145.687 24.2985 145.881 23.765 146.316 23.3285C146.752 22.892 147.236 22.698 147.866 22.698C148.495 22.698 149.028 22.892 149.464 23.3285C149.851 23.765 150.045 24.2985 150.045 24.929V41.1765L148.979 42.389C149.173 41.4675 149.56 40.4975 150.19 39.5275C150.819 38.5575 151.594 37.6845 152.514 36.957C153.434 36.181 154.499 35.599 155.661 35.114C156.726 34.629 157.937 34.435 159.244 34.435Z" fill="black"/>
<path d="M178.804 30.749C177.884 30.749 177.207 30.555 176.771 30.2155C176.335 29.876 176.141 29.294 176.141 28.518V27.742C176.141 26.966 176.383 26.4325 176.868 26.0445C177.352 25.705 178.03 25.511 178.901 25.511C179.773 25.511 180.402 25.705 180.838 26.0445C181.274 26.384 181.467 26.966 181.467 27.742V28.518C181.467 29.294 181.225 29.8275 180.789 30.2155C180.305 30.6035 179.676 30.749 178.804 30.749ZM181.031 60.7705C181.031 61.401 180.838 61.9345 180.402 62.371C179.966 62.8075 179.482 63.0015 178.853 63.0015C178.223 63.0015 177.642 62.8075 177.255 62.371C176.819 61.9345 176.626 61.401 176.626 60.7705V36.666C176.626 36.0355 176.819 35.502 177.255 35.0655C177.691 34.629 178.223 34.435 178.853 34.435C179.482 34.435 179.966 34.629 180.402 35.0655C180.838 35.502 181.031 36.0355 181.031 36.666V60.7705Z" fill="black"/>
<path d="M202.819 34.144C205.288 34.144 207.225 34.629 208.629 35.6475C210.033 36.666 211.05 38.024 211.631 39.7215C212.212 41.419 212.551 43.359 212.551 45.493V60.722C212.551 61.3525 212.357 61.886 211.922 62.3225C211.486 62.759 211.002 62.953 210.372 62.953C209.743 62.953 209.21 62.759 208.775 62.3225C208.387 61.886 208.194 61.3525 208.194 60.722V45.6385C208.194 44.2805 208 43.0195 207.564 41.904C207.128 40.7885 206.45 39.867 205.482 39.188C204.514 38.509 203.207 38.1695 201.56 38.1695C200.059 38.1695 198.655 38.509 197.396 39.188C196.138 39.867 195.121 40.74 194.346 41.904C193.572 43.0195 193.184 44.2805 193.184 45.6385V60.7705C193.184 61.401 192.991 61.9345 192.555 62.371C192.119 62.8075 191.635 63.0015 191.005 63.0015C190.376 63.0015 189.892 62.8075 189.456 62.371C189.02 61.9345 188.827 61.401 188.827 60.7705V37.1025C188.827 36.472 189.02 35.89 189.456 35.502C189.892 35.0655 190.376 34.8715 191.005 34.8715C191.635 34.8715 192.167 35.0655 192.603 35.502C192.991 35.9385 193.184 36.472 193.184 37.1025V40.934L192.119 42.1465C192.313 41.225 192.7 40.255 193.378 39.285C194.007 38.315 194.83 37.442 195.847 36.7145C196.815 35.9385 197.929 35.3565 199.091 34.8715C200.253 34.3865 201.512 34.144 202.819 34.144Z" fill="black"/>
<path d="M241.359 34.4349C241.989 34.4349 242.473 34.6289 242.909 35.0654C243.344 35.5019 243.538 36.0354 243.538 36.6659V60.3339C243.538 63.4379 242.957 65.9599 241.747 67.9484C240.536 69.9369 238.939 71.4404 236.953 72.4104C234.92 73.3804 232.644 73.8654 230.127 73.8654C228.723 73.8654 227.367 73.7199 226.06 73.4289C224.752 73.1379 223.687 72.7499 222.864 72.2649C222.186 71.9254 221.702 71.5374 221.412 71.0524C221.121 70.5674 221.073 70.0339 221.315 69.5004C221.557 68.8699 221.944 68.3849 222.428 68.1424C222.912 67.8999 223.445 67.8999 223.978 68.1424C224.559 68.3849 225.382 68.7729 226.495 69.2094C227.609 69.6459 228.819 69.8884 230.223 69.8884C232.112 69.8884 233.709 69.5489 235.065 68.8214C236.421 68.0939 237.438 67.0269 238.164 65.6204C238.89 64.2139 239.229 62.4679 239.229 60.4309V56.5994L239.81 57.9089C239.277 59.0729 238.503 60.0914 237.534 60.9159C236.566 61.7404 235.404 62.4194 234.145 62.8559C232.838 63.2924 231.482 63.5349 229.981 63.5349C227.899 63.5349 226.108 63.0984 224.704 62.1769C223.251 61.3039 222.186 60.0429 221.46 58.4909C220.734 56.8904 220.395 55.0959 220.395 53.0589V36.6659C220.395 36.0354 220.588 35.5019 221.024 35.0654C221.46 34.6289 221.944 34.4349 222.574 34.4349C223.203 34.4349 223.736 34.6289 224.171 35.0654C224.559 35.5019 224.752 36.0354 224.752 36.6659V52.0889C224.752 54.5624 225.285 56.4054 226.398 57.6664C227.464 58.9274 229.158 59.5579 231.434 59.5579C232.886 59.5579 234.194 59.2184 235.356 58.5879C236.518 57.9574 237.438 57.0359 238.164 55.8719C238.89 54.7079 239.229 53.4469 239.229 52.0889V36.6659C239.229 36.0354 239.423 35.5019 239.858 35.0654C240.197 34.6289 240.73 34.4349 241.359 34.4349Z" fill="black"/>
<path d="M93.2029 45.493C69.9626 38.1695 60.957 21.5825 57.471 10.282C56.7448 8.00251 53.5008 8.00251 52.7746 10.282C45.8509 32.592 29.2438 41.807 17.8658 45.5415C15.5902 46.269 15.6386 49.5185 17.9142 50.1975C39.1693 56.5995 48.6107 74.69 52.5809 86.4755C53.3556 88.8035 56.5995 88.658 57.2773 86.33C63.6684 62.7105 81.3407 53.641 93.106 50.1975C95.43 49.5185 95.4785 46.2205 93.2029 45.493ZM68.5101 48.985C64.4431 50.1975 58.3425 53.3015 56.1153 61.498C55.8732 62.3225 54.7597 62.371 54.5176 61.5465C53.1619 57.4725 49.9179 51.216 42.5585 48.985C41.7839 48.7425 41.7354 47.627 42.5585 47.3845C46.4803 46.075 52.242 42.9225 54.6144 35.211C54.8565 34.435 55.9701 34.435 56.2122 35.211C57.4226 39.091 60.5213 44.8625 68.5585 47.3845C69.3332 47.627 69.3332 48.7425 68.5101 48.985Z" fill="url(#paint0_linear_272_42)"/>
<defs>
<linearGradient id="paint0_linear_272_42" x1="23.4974" y1="33.1651" x2="94.4502" y2="67.2283" gradientUnits="userSpaceOnUse">
<stop stop-color="#5931BA"/>
<stop offset="1" stop-color="#597EBA"/>
</linearGradient>
</defs>
</svg>
